<svg width="19" height="19" viewBox="0 0 19 19" fill="none" xmlns="http://www.w3.org/2000/svg">
<path d="M9.87622 11.9998C9.56108 12.3288 8.97385 12.3413 8.64492 12.0262L5.16212 8.68952C4.81384 8.35585 4.80207 7.8065 5.13574 7.45822C5.46941 7.10994 6.01875 7.09817 6.36703 7.43184L9.21132 10.1568L11.9363 7.31251C12.1031 7.13837 12.3284 7.03879 12.5557 7.03392C12.783 7.02905 13.0124 7.11889 13.1865 7.28573C13.5348 7.61939 13.5466 8.16874 13.2129 8.51702L9.87622 11.9998Z" fill="#51449D"/>
<path d="M9.38341 18.1886C4.42034 18.295 0.299027 14.3466 0.192686 9.3835C0.0863463 4.42043 4.03476 0.299113 8.99783 0.192773C13.9609 0.0864328 18.0822 4.03484 18.1886 8.99792C18.2949 13.961 14.3465 18.0823 9.38341 18.1886ZM9.03517 1.93553C5.03819 2.02117 1.8498 5.34918 1.93544 9.34616C2.02108 13.3431 5.3491 16.5315 9.34607 16.4459C13.343 16.3602 16.5314 13.0322 16.4458 9.03526C16.3602 5.03828 13.0321 1.84989 9.03517 1.93553Z" fill="#51449D"/>
</svg>
