<svg width="40" height="40" viewBox="0 0 40 40" fill="none" xmlns="http://www.w3.org/2000/svg">
<path fill-rule="evenodd" clip-rule="evenodd" d="M31.3335 11.1476C32.9904 11.1476 34.3335 9.82642 34.3335 8.19673C34.3335 6.56704 32.9904 5.24591 31.3335 5.24591C29.6766 5.24591 28.3335 6.56704 28.3335 8.19673C28.3335 9.82642 29.6766 11.1476 31.3335 11.1476Z" fill="#7F265B"/>
<path fill-rule="evenodd" clip-rule="evenodd" d="M9.00049 11.1476C10.6573 11.1476 12.0005 9.82642 12.0005 8.19673C12.0005 6.56704 10.6573 5.24591 9.00049 5.24591C7.34363 5.24591 6.00049 6.56704 6.00049 8.19673C6.00049 9.82642 7.34363 11.1476 9.00049 11.1476Z" fill="#7F265B"/>
<path fill-rule="evenodd" clip-rule="evenodd" d="M9.00049 34.7541C10.6573 34.7541 12.0005 33.433 12.0005 31.8033C12.0005 30.1736 10.6573 28.8524 9.00049 28.8524C7.34363 28.8524 6.00049 30.1736 6.00049 31.8033C6.00049 33.433 7.34363 34.7541 9.00049 34.7541Z" fill="#7F265B"/>
<path fill-rule="evenodd" clip-rule="evenodd" d="M31.3335 34.7541C32.9904 34.7541 34.3335 33.433 34.3335 31.8033C34.3335 30.1736 32.9904 28.8524 31.3335 28.8524C29.6766 28.8524 28.3335 30.1736 28.3335 31.8033C28.3335 33.433 29.6766 34.7541 31.3335 34.7541Z" fill="#7F265B"/>
<rect y="18.0328" width="40" height="3.93443" rx="1.96721" fill="#555555"/>
<rect x="22" y="23.6066" width="16.3934" height="4" rx="2" transform="rotate(90 22 23.6066)" fill="#555555"/>
<rect x="22" width="16.3934" height="4" rx="2" transform="rotate(90 22 0)" fill="#555555"/>
</svg>
